<svg xmlns="http://www.w3.org/2000/svg" width="38.865" height="38.865" viewBox="0 0 38.865 38.865">
  <path id="earthIcon" d="M22,1.928A19.433,19.433,0,1,0,41.436,21.361,19.433,19.433,0,0,0,22,1.928Zm0,36.436a16.946,16.946,0,0,1-6.727-1.384l8.849-9.955a1.215,1.215,0,0,0,.307-.807V22.575a1.214,1.214,0,0,0-1.215-1.215c-4.288,0-8.813-4.458-8.858-4.5A1.214,1.214,0,0,0,13.5,16.5H8.643a1.215,1.215,0,0,0-1.215,1.215V25A1.214,1.214,0,0,0,8.1,26.091l4.187,2.093v7.131a17.014,17.014,0,0,1-5.65-21.242h4.435a1.215,1.215,0,0,0,.859-.356L16.789,8.86A1.215,1.215,0,0,0,17.145,8V5.063a17.051,17.051,0,0,1,12.308,1.01c-.157.133-.31.272-.457.419a7.288,7.288,0,0,0,5.148,12.441q.18,0,.361-.009a28.521,28.521,0,0,1-.319,14.132,1.211,1.211,0,0,0-.032.2A16.951,16.951,0,0,1,22,38.364Z" transform="translate(-2.571 -1.928)" fill="#fff"/>
</svg>
