<svg xmlns="http://www.w3.org/2000/svg" width="64.69" height="39.781" viewBox="0 0 64.69 39.781">
  <g id="educationicon" transform="translate(-278.007 -3087.134)">
    <path id="Path_48" data-name="Path 48" d="M4.985,16.592,33.621,29.545,62.256,16.592,33.621,3.64,4.985,16.592ZM33.621,31.816a1.083,1.083,0,0,1-.446-.1L1.912,17.579a1.083,1.083,0,0,1,0-1.973L33.174,1.465a1.084,1.084,0,0,1,.893,0L65.329,15.606a1.083,1.083,0,0,1,0,1.973L34.067,31.72a1.084,1.084,0,0,1-.446.1Z" transform="translate(276.731 3085.765)" fill="#fff" fill-rule="evenodd"/>
    <path id="Path_49" data-name="Path 49" d="M2.993,18.255a1.083,1.083,0,0,1-1.083-1.083V3.674a1.083,1.083,0,0,1,2.165,0v13.5a1.083,1.083,0,0,1-1.083,1.083Zm43.308,0a1.083,1.083,0,0,1-1.083-1.083V3.674a1.083,1.083,0,1,1,2.165,0v13.5A1.083,1.083,0,0,1,46.3,18.255Z" transform="translate(285.705 3103.03)" fill="#fff" fill-rule="evenodd"/>
    <path id="Path_50" data-name="Path 50" d="M8.348,5.218A1.066,1.066,0,1,0,9.414,6.284,1.067,1.067,0,0,0,8.348,5.218Zm0,4.3a3.231,3.231,0,1,1,3.231-3.231A3.235,3.235,0,0,1,8.348,9.515Z" transform="translate(331.005 3109.554)" fill="#fff" fill-rule="evenodd"/>
    <path id="Path_51" data-name="Path 51" d="M6.341,14.845a1.083,1.083,0,0,1-1.083-1.083V3.454a1.083,1.083,0,1,1,2.165,0V13.762a1.082,1.082,0,0,1-1.083,1.083Z" transform="translate(333.011 3099.927)" fill="#fff" fill-rule="evenodd"/>
    <path id="Path_52" data-name="Path 52" d="M24.5,11.279A42.692,42.692,0,0,1,2.427,5.489,1.083,1.083,0,1,1,3.56,3.643c11.937,7.324,29.941,7.324,41.878,0A1.083,1.083,0,1,1,46.57,5.489,42.692,42.692,0,0,1,24.5,11.279Z" transform="translate(285.705 3115.636)" fill="#fff" fill-rule="evenodd"/>
  </g>
</svg>
