<svg xmlns="http://www.w3.org/2000/svg" width="77.609" height="79.652" viewBox="0 0 77.609 79.652">
  <g id="fellowIicon" transform="translate(387.483 -2525)">
    <path id="Path_26" data-name="Path 26" d="M56.583,26.271A28.21,28.21,0,0,1,67.834,36.585l-.769-.318a1.088,1.088,0,1,0-.833,2.01l3.612,1.5a1.089,1.089,0,0,0,1.5-.881l.45-3.885a1.089,1.089,0,0,0-2.162-.251l-.058.5A30.408,30.408,0,0,0,57.56,24.325a1.089,1.089,0,1,0-.978,1.946Z" transform="translate(-392.926 2523.384)" fill="#211e1f"/>
    <path id="Path_28" data-name="Path 28" d="M14.158,39.755a1.087,1.087,0,0,0,1.45-.515,27.855,27.855,0,0,1,9.209-10.882l-.239.62a1.089,1.089,0,1,0,2.029.787l1.416-3.649a1.088,1.088,0,0,0-.914-1.477l-3.894-.361a1.088,1.088,0,1,0-.2,2.167l.653.06a30.018,30.018,0,0,0-10.023,11.8,1.087,1.087,0,0,0,.515,1.45Zm-1.431,1.709Z" transform="translate(-390.496 2523.314)" fill="#211e1f"/>
    <path id="Path_23" data-name="Path 23" d="M83.126,65.433v5.075A1.088,1.088,0,0,1,82.038,71.6H63.163a1.088,1.088,0,0,1-1.088-1.088V65.433A8.044,8.044,0,0,1,70.112,57.4h4.983a8.044,8.044,0,0,1,8.033,8.036Zm-2.176,0a5.866,5.866,0,0,0-5.859-5.859H70.11a5.866,5.866,0,0,0-5.859,5.859v3.986h16.7ZM72.6,42.815A5.994,5.994,0,0,1,78.59,48.8c0,5.107-3.012,7.779-5.987,7.779A5.478,5.478,0,0,1,68.4,54.512a8.852,8.852,0,0,1-1.778-5.71A5.994,5.994,0,0,1,72.6,42.815ZM68.793,48.8c0,3.85,1.975,5.6,3.811,5.6s3.811-1.751,3.811-5.6a3.811,3.811,0,1,0-7.621,0Z" transform="translate(-421.744 2482.185)" fill="#211e1f"/>
    <path id="Path_27" data-name="Path 27" d="M83.126,65.433v5.075A1.088,1.088,0,0,1,82.038,71.6H63.163a1.088,1.088,0,0,1-1.088-1.088V65.433A8.044,8.044,0,0,1,70.112,57.4h4.983a8.044,8.044,0,0,1,8.033,8.036Zm-2.176,0a5.866,5.866,0,0,0-5.859-5.859H70.11a5.866,5.866,0,0,0-5.859,5.859v3.986h16.7ZM72.6,42.815A5.994,5.994,0,0,1,78.59,48.8c0,5.107-3.012,7.779-5.987,7.779A5.478,5.478,0,0,1,68.4,54.512a8.852,8.852,0,0,1-1.778-5.71A5.994,5.994,0,0,1,72.6,42.815ZM68.793,48.8c0,3.85,1.975,5.6,3.811,5.6s3.811-1.751,3.811-5.6a3.811,3.811,0,1,0-7.621,0Z" transform="translate(-449.558 2522.052)" fill="#211e1f"/>
    <path id="Path_32" data-name="Path 32" d="M83.126,65.433v5.075A1.088,1.088,0,0,1,82.038,71.6H63.163a1.088,1.088,0,0,1-1.088-1.088V65.433A8.044,8.044,0,0,1,70.112,57.4h4.983a8.044,8.044,0,0,1,8.033,8.036Zm-2.176,0a5.866,5.866,0,0,0-5.859-5.859H70.11a5.866,5.866,0,0,0-5.859,5.859v3.986h16.7ZM72.6,42.815A5.994,5.994,0,0,1,78.59,48.8c0,5.107-3.012,7.779-5.987,7.779A5.478,5.478,0,0,1,68.4,54.512a8.852,8.852,0,0,1-1.778-5.71A5.994,5.994,0,0,1,72.6,42.815ZM68.793,48.8c0,3.85,1.975,5.6,3.811,5.6s3.811-1.751,3.811-5.6a3.811,3.811,0,1,0-7.621,0Z" transform="translate(-393.002 2522.052)" fill="#211e1f"/>
    <path id="Path_24" data-name="Path 24" d="M61.38,76.18a1.089,1.089,0,0,1-.107,1.536,30.089,30.089,0,0,1-36.821,2.056l.167.6a1.088,1.088,0,1,1-2.1.588l-1.057-3.767a1.088,1.088,0,0,1,1.047-1.382h.006l3.912.022A1.089,1.089,0,0,1,26.425,78h-.711a27.912,27.912,0,0,0,34.128-1.928,1.089,1.089,0,0,1,1.537.1Z" transform="translate(-390.968 2519.56)" fill="#211e1f"/>
    <path id="Path_31" data-name="Path 31" d="M57.67,48v5.347c1.169.515.19,5.174-1.088,5.174a2.7,2.7,0,0,1-1.088-5.174v-4.6l-2.845.98v7.018a1.088,1.088,0,0,1-.778,1.042L41.823,60.782a1.106,1.106,0,0,1-.621,0L31.153,57.791a1.088,1.088,0,0,1-.778-1.042V49.729l-5.9-2.03a1.089,1.089,0,0,1,0-2.058L41.157,39.9a1.093,1.093,0,0,1,.709,0l16.687,5.745c.439.152.439,1.906,0,2.058Zm-.557,7.822a.527.527,0,1,0-.526.506A.527.527,0,0,0,57.113,55.824ZM50.475,50.48l-8.611,2.963a1.094,1.094,0,0,1-.708,0L32.55,50.479v5.458l8.96,2.667,8.961-2.667Zm4.383-3.811L41.511,42.076,28.169,46.669l13.341,4.594Z" transform="translate(-391.136 2523.889)" fill="#211e1f"/>
  </g>
</svg>
