<svg xmlns="http://www.w3.org/2000/svg" width="35.683" height="51.223" viewBox="0 0 35.683 51.223">
  <g id="noun-award-6708498" transform="translate(129 3.222)">
    <path id="Path_47" data-name="Path 47" d="M20.727,22.842A16.115,16.115,0,1,1,36.842,38.956,16.114,16.114,0,0,1,20.727,22.842ZM36.842,5a17.844,17.844,0,0,0-5.18,34.919v4.7H28.5a2.014,2.014,0,0,0-2.014,2.014v2.237a2.04,2.04,0,0,0,.02.288H23.316A2.014,2.014,0,0,0,21.3,51.171v3.037a2.014,2.014,0,0,0,2.014,2.014H49.85a2.014,2.014,0,0,0,2.014-2.014V51.171a2.014,2.014,0,0,0-2.014-2.014h-2.7a2.04,2.04,0,0,0,.02-.288V46.632a2.014,2.014,0,0,0-2.014-2.014H41.808V39.982A17.844,17.844,0,0,0,36.842,5Zm3.24,35.388a17.966,17.966,0,0,1-6.693-.04v4.269h6.693ZM36.091,13.52a1.15,1.15,0,0,1,2.077,0l2.406,5.063,5.827.6a1.151,1.151,0,0,1,.632,2.019l-4.3,3.678,1.192,5.366A1.152,1.152,0,0,1,42.253,31.5l-5.124-2.774L32.006,31.5a1.152,1.152,0,0,1-1.673-1.261l1.192-5.366-4.3-3.678a1.151,1.151,0,0,1,.632-2.019l5.827-.6Zm1.039,1.837L35.1,19.617a1.15,1.15,0,0,1-.922.652l-4.813.49,3.541,3.028a1.154,1.154,0,0,1,.375,1.124l-.991,4.472,4.287-2.322a1.157,1.157,0,0,1,1.1,0l4.287,2.322-.991-4.472a1.154,1.154,0,0,1,.375-1.124l3.541-3.028-4.813-.49a1.15,1.15,0,0,1-.922-.652ZM31.662,46.344H45.151a.287.287,0,0,1,.288.288v2.237a.288.288,0,0,1-.288.288H28.5a.288.288,0,0,1-.288-.288V46.631a.287.287,0,0,1,.288-.288Zm-8.345,4.539a.287.287,0,0,0-.288.288v3.037a.287.287,0,0,0,.288.288H49.85a.287.287,0,0,0,.288-.288V51.17a.287.287,0,0,0-.288-.288Z" transform="translate(-148 -8.222)" fill="#fff" fill-rule="evenodd"/>
  </g>
</svg>
