<svg xmlns="http://www.w3.org/2000/svg" width="74.095" height="76.75" viewBox="0 0 74.095 76.75">
  <g id="handsOn" transform="translate(-7.026 -5.465)">
    <g id="Group_9" data-name="Group 9" transform="translate(7.026 5.465)">
      <path id="Path_9" data-name="Path 9" d="M67.07,70.367a1.344,1.344,0,0,0-1.04.495,56.037,56.037,0,0,1-6.862,6.377,1.352,1.352,0,0,0-.5,1.424l2.559,9.683a1.346,1.346,0,0,0,2.6-.687L61.5,78.835a60.976,60.976,0,0,0,6.562-6.205,1.358,1.358,0,0,0-.993-2.263Z" transform="translate(-14.149 -14.425)" fill="#211e1f"/>
      <path id="Path_10" data-name="Path 10" d="M50.586,14.753C30.222,9.574,15.071,23.4,13.384,39.379a1.513,1.513,0,0,1-.62,1.03L8.4,43.615a3.442,3.442,0,0,0,.128,5.6l1.744,1.168-.795,1.037a2.739,2.739,0,0,0,.4,3.683,2.666,2.666,0,0,0-.178,3.582l1.03,1.219c-1.508,5.559.367,8.374,5.172,9.35a14.891,14.891,0,0,1,3.6,1.333C22.784,72.5,23.394,79.47,23.353,82a1.347,1.347,0,0,0,2.694.047c.007-.434.128-10.684-5.182-13.781a17.174,17.174,0,0,0-4.242-1.6c-4-.889-4.256-2.2-3.108-6.734a1.347,1.347,0,0,0-.269-1.226l-1.488-1.66.889-.754a1.347,1.347,0,0,0,.162-1.892l-1.189-1.333,1.67-2.182a1.353,1.353,0,0,0-.32-1.936l-2.939-1.97a.722.722,0,0,1-.323-.586.7.7,0,0,1,.3-.6l4.354-3.2a4.188,4.188,0,0,0,1.707-2.882c1.62-14.731,15.162-26.926,33.795-22.357,7.552,2.138,13.522,7.583,17.259,15.754,3.556,7.764,2.091,16.236-4.354,25.185a1.347,1.347,0,0,0,2.185,1.576C71.9,50.21,73.5,40.57,69.565,31.984,64.414,20.728,56.4,16.405,50.588,14.759Z" transform="translate(-7.026 -6.595)" fill="#211e1f"/>
      <path id="Path_11" data-name="Path 11" d="M77.373,26.246c2.172,1.6,3.663-2.626,3.6-4.29.138-4.923-5.939-8.027-9.872-5.071a1.347,1.347,0,0,0,1.562,2.2,3.581,3.581,0,0,1,5.616,2.875,3.43,3.43,0,0,1-.95,2.384,1.346,1.346,0,0,0,.047,1.9Z" transform="translate(-15.793 -6.883)" fill="#211e1f"/>
      <path id="Path_12" data-name="Path 12" d="M84.9,20.741q.01-.2,0-.4L88.062,18a1.35,1.35,0,0,0,.367-1.758L84.685,9.762a1.343,1.343,0,0,0-1.7-.562l-3.64,1.562c-.118-.071-.239-.138-.367-.209l-.444-3.892a1.347,1.347,0,0,0-1.337-1.2H69.684a1.344,1.344,0,0,0-1.337,1.192l-.455,3.9c-.125.067-.246.138-.37.209L63.9,9.2a1.345,1.345,0,0,0-1.7.559l-.714,1.226a1.354,1.354,0,1,0,2.441,1.162l3.175,1.37c.973.444,1.764-.566,2.606-.862a1.345,1.345,0,0,0,.774-1.067l.4-3.428H76l.391,3.424a1.345,1.345,0,0,0,.774,1.071c.929.333,1.582,1.3,2.589.862l3.2-1.374,2.542,4.4-2.8,2.071c-.653.441-.559,1.239-.478,1.919-.081.68-.172,1.475.475,1.916L85.5,24.533l-2.542,4.391-2.471-1.064a1.347,1.347,0,0,0-1.064,2.475l3.569,1.535a1.348,1.348,0,0,0,1.7-.562l3.744-6.465a1.348,1.348,0,0,0-.36-1.754l-3.165-2.354Z" transform="translate(-14.518 -5.465)" fill="#211e1f"/>
      <path id="Path_13" data-name="Path 13" d="M59.973,41.3c-.189-10.589-15.326-12.094-17.569-1.71a8.852,8.852,0,0,0,3.758,9.033.331.331,0,0,1,.1.266v2.791a3.685,3.685,0,0,0,3.613,3.906H52.34a3.611,3.611,0,0,0,3.613-3.6V48.892a.337.337,0,0,1,.1-.263,8.808,8.808,0,0,0,3.926-7.323ZM52.34,52.892H49.875c-.842.017-.98-.983-.919-1.768h4.3v.859a.916.916,0,0,1-.919.909Zm2.209-6.5a2.931,2.931,0,0,0-1.236,2.04H48.9a2.935,2.935,0,0,0-1.239-2.044c-4.468-2.808-3.1-10.094,2.1-11.074,6.593-1.4,10.4,7.266,4.788,11.078Z" transform="translate(-11.888 -9.203)" fill="#211e1f"/>
      <path id="Path_14" data-name="Path 14" d="M53.659,26.645V25.514a1.347,1.347,0,0,0-2.694,0v1.131A1.347,1.347,0,0,0,53.659,26.645Z" transform="translate(-13.092 -8.05)" fill="#211e1f"/>
      <path id="Path_15" data-name="Path 15" d="M40.29,32.018a1.347,1.347,0,0,0,1.9-1.909l-.8-.8a1.347,1.347,0,0,0-1.9,1.909Z" transform="translate(-11.451 -8.702)" fill="#211e1f"/>
      <path id="Path_16" data-name="Path 16" d="M36.558,40.629H35.42a1.347,1.347,0,0,0,0,2.694h1.138A1.347,1.347,0,0,0,36.558,40.629Z" transform="translate(-10.763 -10.32)" fill="#211e1f"/>
      <path id="Path_17" data-name="Path 17" d="M40.048,51.9l-.8.8a1.347,1.347,0,0,0,1.9,1.909l.8-.8a1.347,1.347,0,0,0-1.9-1.909Z" transform="translate(-11.418 -11.821)" fill="#211e1f"/>
      <path id="Path_18" data-name="Path 18" d="M63.858,52.143a1.347,1.347,0,0,0-1.9,1.909l.8.8a1.347,1.347,0,0,0,1.9-1.909Z" transform="translate(-14.553 -11.854)" fill="#211e1f"/>
      <path id="Path_19" data-name="Path 19" d="M68.683,40.969H67.545a1.347,1.347,0,0,0,0,2.694H68.68a1.347,1.347,0,0,0,0-2.694Z" transform="translate(-15.197 -10.367)" fill="#211e1f"/>
      <path id="Path_20" data-name="Path 20" d="M64.912,29.553a1.346,1.346,0,0,0-1.906,0l-.8.8a1.346,1.346,0,1,0,1.9,1.909l.8-.8a1.349,1.349,0,0,0,.007-1.906Z" transform="translate(-14.588 -8.736)" fill="#211e1f"/>
    </g>
  </g>
</svg>
