<svg xmlns="http://www.w3.org/2000/svg" width="67.446" height="71.587" viewBox="0 0 67.446 71.587">
  <g id="memeberIcon" transform="translate(-2000 -2079)">
    <path id="Path_45" data-name="Path 45" d="M30.194,45.615A8,8,0,0,0,38.179,53.6c10.578-.405,10.578-15.565,0-15.971a8,8,0,0,0-7.985,7.985Zm13.514,0c-.233,7.31-10.823,7.31-11.057,0C32.884,38.306,43.474,38.306,43.707,45.615Zm6.966,13.637a9.809,9.809,0,0,0-8.194-4.423h-8.6a10.006,10.006,0,0,0-9.828,11.057H52.307A10.6,10.6,0,0,0,50.673,59.252ZM26.606,63.429a7.393,7.393,0,0,1,7.273-6.143h8.6a7.393,7.393,0,0,1,7.273,6.143ZM9.395,47.372c.258,8.01,11.868,8,12.113,0-.246-8.01-11.868-8-12.113,0Zm9.656,0a3.6,3.6,0,0,1-7.2,0A3.6,3.6,0,0,1,19.051,47.372ZM7.626,59.744h15A11.709,11.709,0,0,0,21.84,62.2H5.009a7.559,7.559,0,0,1,7.371-8.6h6.143a7.358,7.358,0,0,1,6,3.1,13.009,13.009,0,0,0-1.523,2.26,4.9,4.9,0,0,0-4.472-2.9H12.38a4.917,4.917,0,0,0-4.754,3.686ZM60.907,41.316c-8.01.246-8,11.868,0,12.113C68.917,53.171,68.9,41.561,60.907,41.316Zm0,9.656a3.6,3.6,0,0,1,0-7.2A3.6,3.6,0,0,1,60.907,50.972Zm10.443,10V62.2H54.519a11.71,11.71,0,0,0-.786-2.457h15a4.917,4.917,0,0,0-4.754-3.686H57.836a4.9,4.9,0,0,0-4.472,2.9A13.009,13.009,0,0,0,51.84,56.7a7.358,7.358,0,0,1,6-3.1h6.143A7.377,7.377,0,0,1,71.349,60.972Z" transform="translate(1995.038 2084.7)" fill="#211e1f"/>
    <path id="Path_46" data-name="Path 46" d="M11.081,36.653,21.7,31.076l4.251,2.248L23.477,47.71l14.411-7.568L52.3,47.71,49.89,33.692l4.976-2.617,10.6,5.578L63.453,24.847l8.563-8.366L60.173,14.748,54.878,4l-5.295,10.75-5.651.823L37.912,3.36l-5.971,12.1-4.926-.713L21.72,4l-5.295,10.75L4.57,16.481l8.575,8.366L11.106,36.653ZM51.193,17.009l3.673-7.433,3.673,7.433L66.746,18.2l-5.934,5.786,1.4,8.17L54.878,28.3l-4.054,2.125L61.205,20.3,45.1,17.955l-.037-.074,6.143-.9Zm-7.74,3.206L55.91,22.021l-9.017,8.784,2.125,12.408-11.143-5.86-11.143,5.86,2.125-12.408-9.017-8.784L32.3,20.215l5.565-11.29,5.565,11.29ZM9.8,18.2l8.219-1.192L21.7,9.576l3.673,7.433,5.406.786-.086.184L14.583,20.326l9.472,9.239L21.7,28.324l-7.347,3.858,1.413-8.17L9.816,18.225Z" transform="translate(1995.43 2075.64)" fill="#211e1f"/>
  </g>
</svg>
