<svg id="onlineCour" xmlns="http://www.w3.org/2000/svg" width="68.639" height="64.229" viewBox="0 0 68.639 64.229">
  <g id="Group_26" data-name="Group 26">
    <path id="Path_35" data-name="Path 35" d="M5.57,2.061a3.714,3.714,0,0,0-3.71,3.71V43.422a3.714,3.714,0,0,0,3.71,3.71H63.646a3.714,3.714,0,0,0,3.709-3.71V5.77a3.714,3.714,0,0,0-3.709-3.71H5.57ZM63.646,48.7H5.57A5.287,5.287,0,0,1,.288,43.422V5.771A5.287,5.287,0,0,1,5.57.489H63.646a5.287,5.287,0,0,1,5.281,5.282V43.422A5.287,5.287,0,0,1,63.646,48.7Z" transform="translate(-0.288 -0.489)" fill="#211e1f" fill-rule="evenodd"/>
    <path id="Path_36" data-name="Path 36" d="M60.245,2.4h0ZM2.2,39.987H60.211V2.4H2.2Zm58.044,1.572H2.168A1.54,1.54,0,0,1,.629,40.02V2.369A1.54,1.54,0,0,1,2.168.83H60.245a1.541,1.541,0,0,1,1.539,1.539V40.02a1.54,1.54,0,0,1-1.539,1.539Z" transform="translate(3.114 2.913)" fill="#211e1f" fill-rule="evenodd"/>
    <path id="Path_37" data-name="Path 37" d="M11.992,18.763H3.753a.786.786,0,0,1-.786-.786V5.522a.786.786,0,0,1,1.572,0V17.191h6.668V5.522a.786.786,0,0,1,1.572,0V17.977a.786.786,0,0,1-.786.786Z" transform="translate(26.447 41.906)" fill="#211e1f" fill-rule="evenodd"/>
    <path id="Path_38" data-name="Path 38" d="M5.478,15.2a.787.787,0,0,1-.6-.276l-3.1-3.627a.786.786,0,0,1,.37-1.263L17.218,5.484a.786.786,0,0,1,.454,1.505L3.76,11.188l1.984,2.324L17.221,10.1a.786.786,0,1,1,.448,1.506L5.7,15.164a.787.787,0,0,1-.224.033Z" transform="translate(12.755 49.032)" fill="#211e1f" fill-rule="evenodd"/>
    <path id="Path_39" data-name="Path 39" d="M16.47,15.2a.79.79,0,0,1-.224-.033L4.279,11.6A.786.786,0,1,1,4.727,10.1L16.2,13.512l1.984-2.324L4.276,6.989a.786.786,0,0,1,.454-1.5l15.064,4.548a.786.786,0,0,1,.37,1.264l-3.1,3.627a.787.787,0,0,1-.6.276Z" transform="translate(33.937 49.032)" fill="#211e1f" fill-rule="evenodd"/>
    <path id="Path_40" data-name="Path 40" d="M3.968,12.42l20.786,9.4,20.786-9.4-20.786-9.4L3.968,12.42ZM24.754,23.47a.786.786,0,0,1-.324-.07L1.737,13.136a.786.786,0,0,1,0-1.432L24.43,1.439a.787.787,0,0,1,.648,0L47.771,11.7a.786.786,0,0,1,0,1.432L25.078,23.4a.787.787,0,0,1-.324.07Z" transform="translate(9.565 8.296)" fill="#211e1f" fill-rule="evenodd"/>
    <path id="Path_41" data-name="Path 41" d="M2.7,13.961a.786.786,0,0,1-.786-.786v-9.8a.786.786,0,0,1,1.572,0v9.8a.786.786,0,0,1-.786.786Zm31.436,0a.786.786,0,0,1-.786-.786v-9.8a.786.786,0,1,1,1.572,0v9.8a.786.786,0,0,1-.786.786Z" transform="translate(15.905 20.494)" fill="#211e1f" fill-rule="evenodd"/>
    <path id="Path_42" data-name="Path 42" d="M7.462,4.624a.774.774,0,1,0,.774.774A.775.775,0,0,0,7.462,4.624Zm0,3.119A2.345,2.345,0,1,1,9.808,5.4,2.348,2.348,0,0,1,7.462,7.744Z" transform="translate(47.909 25.103)" fill="#211e1f" fill-rule="evenodd"/>
    <path id="Path_43" data-name="Path 43" d="M6.045,11.426a.786.786,0,0,1-.786-.786V3.157a.786.786,0,1,1,1.572,0V10.64a.786.786,0,0,1-.786.786Z" transform="translate(49.327 18.301)" fill="#211e1f" fill-rule="evenodd"/>
    <path id="Path_44" data-name="Path 44" d="M18.307,9.142a30.99,30.99,0,0,1-16.021-4.2A.786.786,0,1,1,3.108,3.6c8.665,5.316,21.734,5.316,30.4,0a.786.786,0,1,1,.822,1.34,30.99,30.99,0,0,1-16.022,4.2Z" transform="translate(15.905 29.4)" fill="#211e1f" fill-rule="evenodd"/>
  </g>
</svg>
