<svg xmlns="http://www.w3.org/2000/svg" width="68.277" height="68.278" viewBox="0 0 68.277 68.278">
  <g id="privateTranningIcon" transform="translate(-4 -3.999)">
    <path id="Path_33" data-name="Path 33" d="M71.058,4H29.665a1.219,1.219,0,0,0-1.219,1.219V17.005H18.964c4.63-4.727,1.066-13.1-5.616-13C6.11,3.971,2.887,13.273,8.5,17.721A7.726,7.726,0,0,0,4,24.727V39.358a1.219,1.219,0,0,0,2.438,0V24.727a5.289,5.289,0,0,1,5.283-5.284H36.106a2.032,2.032,0,0,1,0,4.064h-13a2.849,2.849,0,0,0-2.846,2.845v13a1.219,1.219,0,0,0,2.438,0v-13a.407.407,0,0,1,.407-.407h13a4.471,4.471,0,1,0,0-8.941H30.884V6.439H69.839v31.7H30.884V30.823a1.219,1.219,0,0,0-2.438,0v8.535a1.219,1.219,0,0,0,1.219,1.219H71.058a1.219,1.219,0,0,0,1.219-1.219V5.219A1.219,1.219,0,0,0,71.058,4ZM13.348,6.439c6.982.222,6.98,10.346,0,10.567C6.364,16.783,6.367,6.66,13.348,6.439Z" transform="translate(0 0)" fill="#211e1f"/>
    <path id="Path_34" data-name="Path 34" d="M10,59.129V63.6a1.219,1.219,0,0,0,2.438,0V59.13a7.315,7.315,0,0,1,14.631,0V63.6a1.219,1.219,0,0,0,2.438,0V59.129c.327-9.679,14.293-9.678,14.631,0V63.6a1.219,1.219,0,1,0,2.438,0V59.129c.322-9.675,14.295-9.68,14.631,0V63.6a1.219,1.219,0,1,0,2.438,0V59.129a9.756,9.756,0,0,0-5.519-8.773,6.909,6.909,0,1,0-8.472,0,9.626,9.626,0,0,0-4.3,4.059,9.81,9.81,0,0,0-4.3-4.058,6.9,6.9,0,1,0-8.471,0,9.721,9.721,0,0,0-4.3,4.059,9.81,9.81,0,0,0-4.3-4.058,6.9,6.9,0,0,0,2.674-5.448c-.317-9.135-13.5-9.148-13.819,0a6.9,6.9,0,0,0,2.673,5.446A9.738,9.738,0,0,0,10,59.129ZM49.422,44.909a4.471,4.471,0,0,1,8.942,0A4.471,4.471,0,0,1,49.422,44.909Zm-17.069,0a4.471,4.471,0,0,1,8.942,0A4.471,4.471,0,0,1,32.352,44.909Zm-17.069,0a4.471,4.471,0,0,1,8.942,0A4.471,4.471,0,0,1,15.283,44.909Z" transform="translate(1.315 7.454)" fill="#211e1f"/>
  </g>
</svg>
