<svg xmlns="http://www.w3.org/2000/svg" width="48" height="48" viewBox="0 0 48 48">
  <g id="renowned" transform="translate(0)">
    <path id="Path_53" data-name="Path 53" d="M42.75,51.388a.75.75,0,0,0,.75-.75V49.415a3.291,3.291,0,0,1,3.645-3.653h.206a6.038,6.038,0,0,1-1.646-1.342c-2.317.517-3.705,2.329-3.705,5v1.222A.75.75,0,0,0,42.75,51.388Z" transform="translate(-26.25 -27.763)" fill="#fff"/>
    <path id="Path_54" data-name="Path 54" d="M76.331,51.013a.75.75,0,0,0,.75-.75v-.847c0-2.663-1.387-4.478-3.705-5a6.038,6.038,0,0,1-1.646,1.342h.206a3.291,3.291,0,0,1,3.645,3.653v.847A.75.75,0,0,0,76.331,51.013Z" transform="translate(-44.831 -27.763)" fill="#fff"/>
    <path id="Path_55" data-name="Path 55" d="M61,26.5A4.5,4.5,0,1,0,56.5,31,4.5,4.5,0,0,0,61,26.5Zm-7.5,0a3,3,0,1,1,3,3A3,3,0,0,1,53.5,26.5Z" transform="translate(-32.5 -13.75)" fill="#fff"/>
    <path id="Path_56" data-name="Path 56" d="M89.75,49.5a.75.75,0,0,0,.75-.75v-4.5A2.25,2.25,0,0,0,88.25,42h-1.5a.75.75,0,0,0,0,1.5h1.5a.75.75,0,0,1,.75.75v4.5A.75.75,0,0,0,89.75,49.5Z" transform="translate(-53.75 -26.25)" fill="#fff"/>
    <path id="Path_57" data-name="Path 57" d="M18.25,17.625h1.519a3.716,3.716,0,0,1,.488-1.5H18.25a.75.75,0,0,1-.75-.75V2.25a.75.75,0,0,1,.75-.75h31.5a.75.75,0,0,1,.75.75V15.375a.75.75,0,0,1-.75.75H47.744a3.716,3.716,0,0,1,.487,1.5H49.75A2.25,2.25,0,0,0,52,15.375V2.25A2.25,2.25,0,0,0,49.75,0H18.25A2.25,2.25,0,0,0,16,2.25V15.375A2.25,2.25,0,0,0,18.25,17.625Z" transform="translate(-10)" fill="#fff"/>
    <path id="Path_58" data-name="Path 58" d="M33.75,42h-1.5A2.25,2.25,0,0,0,30,44.25v4.5a.75.75,0,0,0,1.5,0v-4.5a.75.75,0,0,1,.75-.75h1.5a.75.75,0,0,0,0-1.5Z" transform="translate(-18.75 -26.25)" fill="#fff"/>
    <path id="Path_59" data-name="Path 59" d="M48,11.5A.75.75,0,0,0,48,10H45.75a.75.75,0,0,0,0,1.5Z" transform="translate(-28.125 -6.25)" fill="#fff"/>
    <path id="Path_60" data-name="Path 60" d="M62,11.5A.75.75,0,0,0,62,10H59.75a.75.75,0,0,0,0,1.5Z" transform="translate(-36.875 -6.25)" fill="#fff"/>
    <path id="Path_61" data-name="Path 61" d="M76,11.5A.75.75,0,0,0,76,10H73.75a.75.75,0,0,0,0,1.5Z" transform="translate(-45.625 -6.25)" fill="#fff"/>
    <path id="Path_62" data-name="Path 62" d="M57.125,86.25A4.125,4.125,0,1,0,53,82.125,4.125,4.125,0,0,0,57.125,86.25Zm0-6.75A2.625,2.625,0,1,1,54.5,82.125,2.625,2.625,0,0,1,57.125,79.5Z" transform="translate(-33.125 -48.75)" fill="#fff"/>
    <path id="Path_63" data-name="Path 63" d="M55.328,104H48.923C46.245,104,45,105.223,45,107.844v4.406a.75.75,0,0,0,1.5,0v-4.406c0-1.774.589-2.344,2.422-2.344h6.405c1.834,0,2.422.57,2.422,2.344v4.406a.75.75,0,0,0,1.5,0v-4.406C59.25,105.223,58.005,104,55.328,104Z" transform="translate(-28.125 -65)" fill="#fff"/>
    <path id="Path_64" data-name="Path 64" d="M102.125,78a4.125,4.125,0,1,0,4.125,4.125A4.125,4.125,0,0,0,102.125,78Zm0,6.75a2.625,2.625,0,1,1,2.625-2.625A2.625,2.625,0,0,1,102.125,84.75Z" transform="translate(-61.25 -48.75)" fill="#fff"/>
    <path id="Path_65" data-name="Path 65" d="M100.328,104H93.923C91.245,104,90,105.223,90,107.844v4.406a.75.75,0,0,0,1.5,0v-4.406c0-1.774.589-2.344,2.422-2.344h6.405c1.834,0,2.423.57,2.423,2.344v4.406a.75.75,0,0,0,1.5,0v-4.406C104.25,105.223,103.005,104,100.328,104Z" transform="translate(-56.25 -65)" fill="#fff"/>
    <path id="Path_66" data-name="Path 66" d="M44,74.75a.75.75,0,0,0-.75-.75h-1.5a.75.75,0,0,0,0,1.5h1.5A.75.75,0,0,0,44,74.75Z" transform="translate(-25.625 -46.25)" fill="#fff"/>
    <path id="Path_67" data-name="Path 67" d="M82.25,74h-1.5a.75.75,0,0,0,0,1.5h1.5a.75.75,0,0,0,0-1.5Z" transform="translate(-50 -46.25)" fill="#fff"/>
    <path id="Path_68" data-name="Path 68" d="M55.653,60.883l-2.561-4.226a.75.75,0,0,0-.641-.375H49.945a.75.75,0,0,0-.124-.09l-6.33-3.619.416-.547a.161.161,0,0,1,.2-.037L47.256,53.8a.751.751,0,0,0,.75-1.3L44.83,50.657a1.657,1.657,0,0,0-2.111.439l-.206.27-.21-.278a1.665,1.665,0,0,0-2.134-.416l-3.146,1.823a.751.751,0,1,0,.75,1.3L40.893,52c.056-.03.161-.064.225,0l.42.551h0L35.2,56.192a.75.75,0,0,0-.124.09H33.325a.75.75,0,0,0-.638.353L29.92,61.063a5.625,5.625,0,0,1,.934,1.339l2.888-4.62H52.026l2.644,4.376a5.655,5.655,0,0,1,.982-1.275Zm-13.395-7a1.647,1.647,0,0,0,.255-.172,1.53,1.53,0,0,0,.236.161l4.208,2.407H38.069Z" transform="translate(-18.7 -31.532)" fill="#fff"/>
    <path id="Path_69" data-name="Path 69" d="M12.125,86.25A4.125,4.125,0,1,0,8,82.125,4.125,4.125,0,0,0,12.125,86.25Zm0-6.75A2.625,2.625,0,1,1,9.5,82.125,2.625,2.625,0,0,1,12.125,79.5Z" transform="translate(-5 -48.75)" fill="#fff"/>
    <path id="Path_70" data-name="Path 70" d="M10.327,104h-6.4C1.245,104,0,105.223,0,107.844v4.406a.75.75,0,0,0,1.5,0v-4.406c0-1.774.589-2.344,2.422-2.344h6.4c1.834,0,2.423.57,2.423,2.344v4.406a.75.75,0,0,0,1.5,0v-4.406C14.25,105.223,13,104,10.327,104Z" transform="translate(0 -65)" fill="#fff"/>
    <path id="Path_71" data-name="Path 71" d="M.75,6a.75.75,0,0,0,.75-.75V.75A.75.75,0,1,0,0,.75v4.5A.75.75,0,0,0,.75,6Z" transform="translate(0)" fill="#fff"/>
    <path id="Path_72" data-name="Path 72" d="M8.75,3a.75.75,0,0,0,.75-.75V.75A.75.75,0,1,0,8,.75v1.5A.75.75,0,0,0,8.75,3Z" transform="translate(-5)" fill="#fff"/>
    <path id="Path_73" data-name="Path 73" d="M124.75,0a.75.75,0,0,0-.75.75v4.5a.75.75,0,0,0,1.5,0V.75A.75.75,0,0,0,124.75,0Z" transform="translate(-77.5)" fill="#fff"/>
    <path id="Path_74" data-name="Path 74" d="M116.75,3a.75.75,0,0,0,.75-.75V.75a.75.75,0,1,0-1.5,0v1.5A.75.75,0,0,0,116.75,3Z" transform="translate(-72.5)" fill="#fff"/>
  </g>
</svg>
